<svg fill="none" xmlns="http://www.w3.org/2000/svg" viewBox="0 0 127 20">
  <path d="M19.343 7.422a.382.382 0 00-.29-.09 9.374 9.374 0 00-3.207.983 10.047 10.047 0 00-.771-3.332.391.391 0 00-.222-.212.38.38 0 00-.303.017 9.597 9.597 0 00-2.684 2.048 9.785 9.785 0 00-1.839-2.862.383.383 0 00-.558 0 9.843 9.843 0 00-1.836 2.86A9.639 9.639 0 004.95 4.789a.38.38 0 00-.304-.017.391.391 0 00-.221.212 10.044 10.044 0 00-.771 3.331 9.412 9.412 0 00-3.207-.983.382.382 0 00-.29.09.4.4 0 00-.137.277c-.174 2.616.81 5.436 2.698 7.738 1.89 2.301 4.438 3.781 6.99 4.062a.369.369 0 00.04.002h.002c.013 0 .027 0 .04-.002 2.555-.28 5.103-1.76 6.992-4.059 1.888-2.3 2.872-5.12 2.698-7.741a.399.399 0 00-.137-.276zm-4.82-1.726a9.621 9.621 0 01.572 3.266 11.654 11.654 0 01-.928 4.575l-.071.165c-.069.159-.14.315-.216.469l-.061.127c-.095.188-.193.373-.296.554l-.074.124c-.084.143-.17.284-.26.422l-.096.147c-.115.171-.232.339-.354.5-.004.007-.01.012-.013.018a10.9 10.9 0 01-.368.455l-.113.13c-.106.12-.213.237-.323.35-.03.032-.06.066-.092.097a9.553 9.553 0 01-.422.4l-.028.024.03-.059c.102-.187.201-.376.294-.572l.025-.058a11.066 11.066 0 00.493-1.254c.01-.034.023-.066.033-.1.067-.21.127-.425.182-.642.015-.057.028-.115.042-.173.042-.175.08-.351.115-.53l.032-.165c.04-.223.075-.45.104-.677l.014-.134a12.835 12.835 0 00.065-.77c.013-.235.021-.47.021-.708v-.132a12.882 12.882 0 00-.016-.522c-.003-.059-.008-.117-.012-.175a12.507 12.507 0 00-.024-.342c-.006-.07-.015-.138-.022-.207-.011-.102-.021-.203-.034-.304l-.032-.218c-.015-.096-.029-.193-.045-.288l-.041-.22a11.465 11.465 0 00-.056-.279c-.015-.074-.033-.147-.05-.22a10.812 10.812 0 00-.066-.272l-.06-.219a12.44 12.44 0 00-.145-.48l-.046-.146a9.136 9.136 0 012.343-1.957zm-4.774-.86a9.406 9.406 0 011.628 2.87c.44 1.232.67 2.532.678 3.844v.126c0 .17-.003.34-.01.509l-.01.165c-.006.113-.012.225-.021.337l-.02.197c-.01.1-.02.201-.032.3-.008.07-.02.137-.029.205-.013.096-.027.192-.042.286l-.038.207c-.017.092-.034.185-.053.276l-.047.206c-.02.09-.041.18-.064.268-.017.069-.036.136-.055.204a11.06 11.06 0 01-.293.91 10.171 10.171 0 01-.484 1.096 9.467 9.467 0 01-.221.405l-.097.166c-.046.077-.095.151-.143.226-.034.052-.066.104-.1.154-.052.077-.106.151-.16.226-.034.046-.066.093-.1.138-.061.08-.125.159-.189.237l-.087.109-.011.012-.01-.01c-.034-.04-.065-.083-.098-.124a6.411 6.411 0 01-.177-.223c-.036-.047-.07-.097-.106-.146-.052-.072-.104-.143-.154-.217l-.103-.16a9.236 9.236 0 01-.14-.22c-.034-.056-.066-.113-.099-.17-.043-.075-.086-.15-.127-.225l-.093-.18a9.55 9.55 0 01-.553-1.29 10.18 10.18 0 01-.221-.712 11.584 11.584 0 01-.119-.471l-.047-.21a7.752 7.752 0 01-.052-.273c-.013-.07-.027-.139-.038-.209a8.888 8.888 0 01-.043-.285l-.029-.205c-.012-.1-.022-.2-.031-.301-.007-.066-.015-.13-.02-.197-.01-.111-.015-.224-.021-.337-.003-.055-.008-.11-.01-.165a12.94 12.94 0 01-.01-.509v-.125a12.218 12.218 0 01.14-1.715 11.173 11.173 0 01.535-2.132A9.48 9.48 0 019.75 4.836zm-4.773.86A9.206 9.206 0 017.32 7.652l-.046.144a11.945 11.945 0 00-.27.974l-.05.22c-.02.092-.037.186-.055.28a7.1 7.1 0 00-.04.219c-.017.096-.031.193-.046.29-.01.072-.022.143-.031.216-.013.101-.024.204-.035.307l-.021.204c-.01.114-.018.23-.025.345-.003.057-.009.115-.011.173-.01.173-.014.348-.017.523v.13a13.126 13.126 0 00.086 1.477l.015.135c.028.228.063.454.103.677l.032.166c.035.178.073.355.115.53l.041.172c.056.217.116.432.182.643l.033.096a11.137 11.137 0 00.493 1.26l.025.055c.092.195.19.386.294.573l.029.057-.028-.024a9.536 9.536 0 01-.422-.4c-.03-.03-.06-.063-.09-.095a10.049 10.049 0 01-.437-.481 10.483 10.483 0 01-.367-.456c-.005-.006-.01-.01-.014-.017a10.858 10.858 0 01-.352-.5l-.098-.148a11.279 11.279 0 01-.258-.42l-.075-.126c-.103-.18-.2-.364-.295-.552-.022-.043-.042-.088-.063-.131a12 12 0 01-.214-.465l-.072-.168a11.665 11.665 0 01-.93-4.576 9.61 9.61 0 01.571-3.263zm-1.664 9.231C1.653 12.906.742 10.467.776 8.175c1 .174 1.965.518 2.855 1.017 0 .053.004.107.006.16a12.053 12.053 0 00.027.522c.006.078.011.155.018.232l.031.29.028.23c.014.098.03.194.045.292.012.075.023.151.037.227.018.099.038.197.058.295l.046.223c.023.102.049.203.074.305.017.07.033.14.052.21.03.111.063.222.096.333l.052.18a13.02 13.02 0 00.427 1.168l.076.177c.077.177.158.352.243.524l.057.12c.103.204.211.405.324.6l.085.143c.092.156.188.31.287.46a11.814 11.814 0 00.482.687l.061.078a10.916 10.916 0 00.886 1.012l.042.043c.152.152.308.296.467.436.018.015.034.032.052.048a10.867 10.867 0 01-4.378-3.26zm12.876.003a10.852 10.852 0 01-4.379 3.257c.018-.015.034-.033.052-.048.16-.14.316-.284.468-.436.014-.013.027-.028.04-.042a10.755 10.755 0 00.528-.572c.123-.143.243-.29.36-.44l.063-.08c.133-.174.262-.355.387-.54l.095-.146c.099-.15.194-.303.286-.459.029-.048.058-.095.086-.144.113-.196.22-.396.324-.6l.058-.122c.085-.171.165-.345.242-.522l.076-.177a13.08 13.08 0 00.427-1.167c.017-.057.032-.114.05-.17.033-.114.067-.228.098-.343.018-.067.033-.135.05-.202.026-.104.052-.208.075-.312.016-.072.03-.145.045-.217l.059-.3.036-.224c.016-.098.032-.196.045-.294l.028-.23a12.874 12.874 0 00.05-.523 11.914 11.914 0 00.026-.523c.001-.054.005-.107.006-.16a8.92 8.92 0 012.855-1.02c.034 2.298-.877 4.736-2.536 6.756zM8.47 1.308c0 .347.135.68.375.925s.566.383.905.383c.34 0 .665-.138.905-.383a1.324 1.324 0 000-1.85A1.266 1.266 0 009.75 0c-.34 0-.665.138-.905.384-.24.245-.374.577-.375.924zm1.79 0a.528.528 0 01-.149.37.506.506 0 01-.722-.001.528.528 0 010-.738.505.505 0 01.722 0c.096.098.15.23.15.369zm4.906-.091c-.36.172-.622.505-.709.902a1.33 1.33 0 00.27 1.124 1.27 1.27 0 001.036.466c.397-.018.764-.224.993-.557.228-.333.291-.755.172-1.143a1.295 1.295 0 00-.783-.836 1.247 1.247 0 00-.979.044zm1.021 1.364a.518.518 0 01-.264.295.501.501 0 01-.392.018.516.516 0 01-.288-.27.533.533 0 01-.017-.4.518.518 0 01.264-.295.512.512 0 01.68.252.53.53 0 01.017.4zM3.355 1.172a1.29 1.29 0 00-.722.677 1.335 1.335 0 00-.043 1c.116.326.354.591.662.738.308.147.66.163.979.044a1.29 1.29 0 00.722-.676c.143-.315.159-.675.043-1a1.3 1.3 0 00-.662-.738 1.256 1.256 0 00-.979-.045zm.901 1.45a.503.503 0 01-.792.18.528.528 0 01.036-.828.502.502 0 01.446-.07.53.53 0 01.31.719z" fill="#3B28CC"/>
  <path d="M24.5 6.657V5.009h7.765v1.648H29.37v7.806h-1.976V6.657H24.5zm10.402 7.945c-.717 0-1.337-.153-1.86-.457a3.128 3.128 0 01-1.205-1.284c-.283-.55-.425-1.19-.425-1.916 0-.732.142-1.372.425-1.92a3.09 3.09 0 011.205-1.283c.523-.308 1.143-.462 1.86-.462.717 0 1.336.154 1.856.462.523.304.926.732 1.21 1.283.283.548.424 1.188.424 1.92 0 .727-.141 1.365-.424 1.916a3.119 3.119 0 01-1.21 1.284c-.52.304-1.139.457-1.856.457zm.01-1.524c.326 0 .598-.092.817-.277.218-.188.383-.443.494-.766.113-.323.17-.691.17-1.103 0-.413-.057-.78-.17-1.104a1.718 1.718 0 00-.494-.766c-.219-.188-.491-.282-.818-.282-.329 0-.606.094-.83.282-.222.188-.39.443-.504.766-.11.323-.166.691-.166 1.104 0 .412.056.78.166 1.103.114.323.282.579.504.766.224.185.501.277.83.277zm5.761-.655l.005-2.36h.286l2.271-2.69h2.258l-3.052 3.563h-.466l-1.302 1.487zm-1.782 2.04V5.01h1.967v9.454H38.89zm4.432 0l-2.087-3.088 1.311-1.39 3.08 4.478h-2.304zm5.294.139c-.73 0-1.357-.148-1.883-.444a3.035 3.035 0 01-1.21-1.264c-.283-.548-.425-1.196-.425-1.944 0-.73.142-1.37.425-1.92a3.14 3.14 0 011.196-1.288c.517-.308 1.123-.462 1.819-.462a3.7 3.7 0 011.306.226c.406.148.76.371 1.062.67.305.298.542.674.71 1.126.17.45.255.976.255 1.579v.54h-5.988v-1.219h4.136c0-.283-.061-.534-.184-.752a1.323 1.323 0 00-.513-.513 1.462 1.462 0 00-.752-.189c-.299 0-.563.07-.794.208a1.457 1.457 0 00-.536.55c-.129.227-.195.48-.198.76v1.16c0 .35.064.654.194.909.132.255.318.452.558.59.24.14.525.209.854.209.219 0 .419-.031.6-.093.182-.061.337-.154.467-.277.129-.123.227-.274.295-.452l1.82.12a2.483 2.483 0 01-.569 1.145 2.85 2.85 0 01-1.098.757c-.447.178-.962.268-1.547.268zm5.725-4.238v4.1h-1.967V7.371h1.874v1.251h.083c.157-.412.42-.738.79-.978.37-.243.817-.365 1.343-.365.493 0 .922.108 1.288.323.367.216.651.523.854.923.203.397.305.871.305 1.422v4.515h-1.967V10.3c.003-.434-.107-.772-.332-1.015-.225-.247-.534-.37-.928-.37a1.41 1.41 0 00-.702.171c-.2.114-.357.28-.47.499a1.72 1.72 0 00-.171.78zm8.225 4.099v-.95l4.972-7.276h-5.013V5.009h6.758v.95l-4.972 7.276h5.014v1.228h-6.759zm10.713.143c-.698 0-1.3-.149-1.805-.447a3.037 3.037 0 01-1.163-1.27c-.271-.548-.406-1.19-.406-1.925 0-.726.135-1.367.406-1.92a3.155 3.155 0 011.145-1.298c.492-.31 1.068-.466 1.726-.466.4 0 .788.066 1.164.198.375.133.712.34 1.01.624.3.283.534.65.707 1.103.172.45.258.996.258 1.639v.49h-5.636v-1.035h4.284c0-.363-.074-.685-.222-.965a1.676 1.676 0 00-.623-.67 1.742 1.742 0 00-.933-.244c-.387 0-.726.096-1.015.286a1.922 1.922 0 00-.665.74c-.154.3-.23.629-.23.982v.808c0 .474.082.877.249 1.21.169.332.404.586.706.761.301.173.654.259 1.057.259.262 0 .5-.037.716-.11a1.484 1.484 0 00.919-.9l1.306.235a2.366 2.366 0 01-.564 1.01c-.267.287-.604.51-1.01.67a3.785 3.785 0 01-1.38.235zm5.174-4.353v4.21h-1.38v-7.09h1.325v1.153h.088a2.02 2.02 0 01.766-.904c.35-.228.792-.342 1.325-.342.483 0 .906.102 1.27.305.362.2.644.498.844.895.2.397.3.888.3 1.473v4.51h-1.38V10.12c0-.514-.134-.915-.402-1.205-.267-.292-.635-.438-1.103-.438-.32 0-.605.069-.854.207a1.494 1.494 0 00-.586.61c-.142.264-.213.585-.213.96zm14.779-2.257c-.09-.28-.21-.531-.36-.753a2.301 2.301 0 00-1.237-.937 2.84 2.84 0 00-.864-.125c-.532 0-1.012.137-1.44.411-.428.274-.766.676-1.015 1.205-.247.526-.37 1.171-.37 1.934 0 .767.125 1.415.374 1.944.25.53.591.93 1.025 1.205.434.274.928.41 1.482.41.514 0 .962-.104 1.343-.313.385-.21.682-.505.891-.887.213-.384.319-.837.319-1.357l.37.07h-2.706V9.624h3.716V10.7c0 .794-.17 1.483-.508 2.068a3.458 3.458 0 01-1.394 1.348c-.59.317-1.268.475-2.031.475-.856 0-1.607-.197-2.253-.59-.643-.394-1.145-.953-1.505-1.676-.36-.727-.54-1.588-.54-2.585 0-.754.105-1.432.314-2.032.21-.6.503-1.11.882-1.528.381-.421.83-.743 1.343-.965a4.205 4.205 0 011.694-.337c.511 0 .987.076 1.427.227.443.15.837.364 1.182.641a3.634 3.634 0 011.325 2.249h-1.464zm4.512 6.624c-.45 0-.856-.083-1.219-.25a2.054 2.054 0 01-.863-.733c-.21-.32-.314-.713-.314-1.177 0-.4.077-.73.23-.988.155-.259.362-.463.624-.614.261-.151.554-.265.877-.342.323-.077.652-.135.988-.175l1.034-.12c.265-.034.457-.088.577-.162.12-.074.18-.194.18-.36v-.032c0-.403-.114-.716-.341-.937-.225-.222-.56-.333-1.007-.333-.465 0-.83.103-1.099.31-.264.203-.447.429-.549.678l-1.297-.295c.154-.431.378-.779.674-1.044a2.734 2.734 0 011.03-.581 4.02 4.02 0 011.223-.185c.283 0 .583.034.9.102.32.064.618.184.895.36.28.175.51.426.688.752.179.323.268.743.268 1.26v4.71h-1.348v-.97h-.055c-.09.178-.223.354-.402.526a2.133 2.133 0 01-.688.43c-.28.113-.615.17-1.006.17zm.3-1.108c.382 0 .708-.075.978-.226.274-.15.482-.348.624-.59.144-.247.217-.51.217-.79v-.914c-.05.049-.145.095-.287.138a4.46 4.46 0 01-.475.106 58.06 58.06 0 01-.522.079l-.424.055a3.42 3.42 0 00-.734.171 1.26 1.26 0 00-.527.346c-.129.148-.194.345-.194.591 0 .342.127.6.379.776.252.172.574.258.965.258zm4.258.951v-7.09h1.334v1.126h.074a1.71 1.71 0 01.683-.9 1.955 1.955 0 011.117-.333 5.914 5.914 0 01.586.032v1.32a2.47 2.47 0 00-.295-.05 2.823 2.823 0 00-.425-.032c-.326 0-.617.069-.872.207a1.543 1.543 0 00-.822 1.39v4.33h-1.38zm6.609.139a2.746 2.746 0 01-1.532-.439c-.447-.295-.797-.715-1.053-1.26-.252-.548-.378-1.205-.378-1.971 0-.767.127-1.422.383-1.967.258-.545.612-.962 1.062-1.251.449-.29.958-.434 1.528-.434.44 0 .794.074 1.061.222.271.144.481.313.628.507.151.194.268.365.351.513h.083V5.009h1.381v9.454h-1.348V13.36h-.116a3.64 3.64 0 01-.36.517 2 2 0 01-.637.508c-.271.144-.622.217-1.053.217zm.305-1.178c.397 0 .733-.104 1.006-.313.277-.213.487-.507.628-.882.145-.376.217-.813.217-1.311 0-.493-.071-.924-.212-1.293-.142-.37-.349-.657-.623-.863-.274-.206-.613-.31-1.016-.31-.415 0-.762.108-1.039.324a1.97 1.97 0 00-.627.881 3.584 3.584 0 00-.208 1.26c0 .475.071.901.212 1.28.142.378.351.678.628.9.28.218.625.328 1.034.328zm7.455 1.182c-.699 0-1.301-.149-1.805-.447a3.037 3.037 0 01-1.164-1.27c-.271-.548-.406-1.19-.406-1.925 0-.726.135-1.367.406-1.92a3.158 3.158 0 011.145-1.298c.493-.31 1.068-.466 1.727-.466.4 0 .788.066 1.163.198.376.133.713.34 1.011.624.299.283.534.65.706 1.103.173.45.259.996.259 1.639v.49h-5.637v-1.035h4.284c0-.363-.074-.685-.221-.965a1.682 1.682 0 00-.623-.67 1.744 1.744 0 00-.933-.244 1.81 1.81 0 00-1.016.286 1.921 1.921 0 00-.664.74c-.154.3-.231.629-.231.982v.808c0 .474.083.877.249 1.21.169.332.405.586.706.761a2.09 2.09 0 001.058.259c.261 0 .5-.037.715-.11a1.482 1.482 0 00.919-.9l1.306.235a2.357 2.357 0 01-.563 1.01c-.268.287-.605.51-1.011.67a3.783 3.783 0 01-1.38.235zm5.174-4.353v4.21h-1.381v-7.09h1.325v1.153h.088a2.03 2.03 0 01.766-.904c.351-.228.793-.342 1.325-.342.484 0 .907.102 1.27.305.363.2.645.498.845.895.2.397.3.888.3 1.473v4.51h-1.381V10.12c0-.514-.133-.915-.401-1.205-.268-.292-.636-.438-1.103-.438-.321 0-.605.069-.855.207a1.497 1.497 0 00-.586.61c-.141.264-.212.585-.212.96z" fill="#5E4DDC"/>
</svg>
